# xmcd
#
# Track frame offsets:
# 150
# 11670
# 23129
# 40134
# 53650
# 70023
# 85144
# 97984
# 113483
# 124476
#
# Disc length: 1868 seconds
#
#
# Revision: 0
# Processed by: cddbd v1.5PL3 Copyright (c) Steve Scherf et al.
# Submitted via: FreeRIP 2.53 
#
DISCID=74074a0a
DTITLE=Frickie, Janie - Super Hits
DYEAR=1900
DGENRE=Country
TTITLE0=Down To My Last Broken Heart
TTITLE1=Don't Worry 'Bout Me Baby
TTITLE2=It Ain't Easy Being Easy
TTITLE3=He's A Heartache
TTITLE4=Tell Me a Lie
TTITLE5=Let's Stop Talkin' About It
TTITLE6=Your's Heart's Not In It
TTITLE7=You Don't Know Love
TTITLE8=She's Single Again
TTITLE9=always Have, Always Will
EXTD=
EXTT0=
EXTT1=
EXTT2=
EXTT3=
EXTT4=
EXTT5=
EXTT6=
EXTT7=
EXTT8=
EXTT9=
PLAYORDER=
